<?xml version="1.0" encoding="UTF-8"?>
<svg id="Layer_1" data-name="Layer 1" xmlns="http://www.w3.org/2000/svg" viewBox="0 0 760 140">
  <defs>
    <style>
      .cls-1 {
        fill: #fff;
      }
    </style>
  </defs>
  <path class="cls-1" d="M138.14,70.26c0-31.5-25.54-57.04-57.04-57.04s-57.04,25.54-57.04,57.04c0,28.88,21.46,52.74,49.3,56.52l.47-24.51c-.04-.09-.36-.72-2.46-1.8-1.5-.78-3.27-1.47-4.57-1.97l-.33-.13c-4.16-1.63-3.5-6.72-2.73-9.61.17-.65.62-2.43,1.23-4.89,5.32-21.25,11.01-43.36,12.79-46.23,1.23-1.97,3.88-3.19,6.92-3.2h.04c4.29,0,8.29,2.28,10.71,6.09,4.88,7.7.26,14.21-4.2,20.5h0c-2.21,3.12.43,9.55,2.77,15.22,1.96,4.76,3.66,8.88,3.06,11.78-.61,2.99-2.52,4.55-4.35,6.05-2.33,1.9-4.33,3.54-4.26,8.16l.47,24.53c27.81-3.81,49.23-27.66,49.23-56.51ZM56.37,88.43c-1.24.38-2.98.75-4.34-.02-1.37-.77-2.05-2.57-1.11-4.28.75-1.37,2.55-1.64,2.55-1.64,0,0-.9-1.58-.28-3.02.77-1.8,2.6-2.37,4.06-1.77,1.44.6,2.22,2.19,2.69,3.41.64,1.65,1.03,3.86,1.12,5.08-1.01.68-2.99,1.74-4.68,2.25ZM60.43,74.33c-1.24.38-2.98.75-4.34-.02-1.37-.77-2.05-2.57-1.11-4.28.75-1.37,2.55-1.64,2.55-1.64,0,0-.9-1.58-.28-3.02.77-1.8,2.6-2.37,4.06-1.77,1.44.6,2.22,2.19,2.69,3.41.64,1.65,1.03,3.86,1.12,5.08-1.01.68-2.99,1.74-4.68,2.25ZM64.43,59.7c-1.24.38-2.98.75-4.34-.02-1.37-.77-2.05-2.57-1.11-4.28.75-1.37,2.55-1.64,2.55-1.64,0,0-.9-1.58-.28-3.02.77-1.8,2.6-2.37,4.06-1.77,1.44.6,2.22,2.19,2.69,3.41.64,1.65,1.03,3.86,1.12,5.08-1.01.68-2.99,1.74-4.68,2.25ZM67.77,45.63c-1.24.38-2.98.75-4.34-.02-1.37-.77-2.05-2.57-1.11-4.28.75-1.37,2.55-1.64,2.55-1.64,0,0-.9-1.58-.28-3.02.77-1.8,2.6-2.37,4.06-1.77,1.44.6,2.22,2.19,2.69,3.41.64,1.65,1.03,3.86,1.12,5.08-1.01.68-2.99,1.74-4.68,2.25Z"/>
  <g>
    <path class="cls-1" d="M195.97,65.25c0-4.7-1.26-8.27-3.78-10.69-2.52-2.42-6.23-3.64-11.12-3.64-4.51,0-8.08,1.04-10.69,3.13-2.62,2.09-4.26,5.27-4.93,9.54h7.49v-.29c0-1.87.65-3.42,1.94-4.64s3.31-1.84,6.05-1.84,4.64.7,5.87,2.09c1.22,1.39,1.84,3.58,1.84,6.55v1.87l-10.58,1.08c-4.37.43-7.69,1.61-9.97,3.53-2.28,1.92-3.42,4.61-3.42,8.06s1.07,6.06,3.2,7.96c2.14,1.9,5.08,2.84,8.82,2.84,3.02,0,5.41-.59,7.16-1.76,1.75-1.18,3.11-3.04,4.07-5.58h1.87v1.8c0,1.58.41,2.79,1.22,3.6.82.82,1.99,1.22,3.53,1.22h6.34v-5.47h-4.9v-19.37ZM188.63,77.13c0,2.64-.73,4.62-2.2,5.94-1.46,1.32-3.68,1.98-6.66,1.98-2.45,0-4.32-.48-5.62-1.44-1.3-.96-1.94-2.35-1.94-4.18v-.43c0-1.78.64-3.14,1.91-4.1,1.27-.96,3.3-1.56,6.08-1.8l8.42-.86v4.9Z"/>
    <polygon class="cls-1" points="199.75 45.88 205.22 45.88 205.22 90.09 212.63 90.09 212.63 40.41 199.75 40.41 199.75 45.88"/>
    <polygon class="cls-1" points="216.88 45.88 222.35 45.88 222.35 90.09 229.77 90.09 229.77 40.41 216.88 40.41 216.88 45.88"/>
    <path class="cls-1" d="M266.35,43.94h-4.68l-2.66,7.7h-6.77v5.47h6.77v28.15c0,1.54.41,2.73,1.22,3.56.82.84,2.02,1.26,3.6,1.26h11.16v-5.47h-8.64v-27.5h8.64v-5.47h-8.64v-7.7Z"/>
    <path class="cls-1" d="M311.12,65.03c0-4.61-1.02-8.11-3.06-10.51-2.04-2.4-5.05-3.6-9.04-3.6-2.69,0-4.87.58-6.55,1.73-1.68,1.15-2.93,2.88-3.74,5.18h-1.94c.48-4.32.72-7.34.72-9.07v-8.35h-12.24v5.47h4.9v44.21h7.34v-23.62c0-3.31.65-5.75,1.94-7.31,1.3-1.56,3.38-2.34,6.26-2.34s4.83.78,6.16,2.34c1.32,1.56,1.98,4,1.98,7.31v23.62h12.1v-5.47h-4.82v-19.58Z"/>
    <path class="cls-1" d="M344.47,53.08c-2.52-1.44-5.58-2.16-9.18-2.16s-6.92.77-9.54,2.3c-2.62,1.54-4.62,3.79-6.01,6.77-1.39,2.98-2.09,6.6-2.09,10.87s.69,7.9,2.09,10.87c1.39,2.98,3.4,5.23,6.01,6.77,2.62,1.54,5.8,2.3,9.54,2.3,4.42,0,8.03-1.08,10.84-3.24,2.81-2.16,4.64-5.3,5.51-9.43h-7.56v.29c0,1.01-.3,2-.9,2.99-.6.98-1.56,1.81-2.88,2.48-1.32.67-2.99,1.01-5,1.01-3.46,0-5.96-.96-7.52-2.88-1.56-1.92-2.34-4.92-2.34-9v-.94h26.78v-2.66c0-3.98-.66-7.34-1.98-10.08-1.32-2.74-3.24-4.82-5.76-6.26ZM327.76,59.52c1.56-1.9,4.07-2.84,7.52-2.84s5.76.95,7.34,2.84c1.4,1.68,2.18,4.24,2.34,7.67h-19.52c.16-3.43.92-5.99,2.31-7.67Z"/>
    <path class="cls-1" d="M406.02,82.78c-1.8-1.56-4.43-2.34-7.88-2.34h-12.89c-.67,0-1.17-.12-1.48-.36-.31-.24-.47-.58-.47-1.01,0-.53.16-.91.47-1.15.31-.24.8-.36,1.48-.36h5.4c5.04,0,8.94-1.12,11.7-3.35,2.76-2.23,4.14-5.46,4.14-9.68s-1.42-7.73-4.25-10.08c-1.19-.99-2.61-1.76-4.23-2.33.47-.32,1.09-.48,1.85-.48h8.35v-7.42h-5.69c-2.5,0-4.34.76-5.54,2.27-.91,1.15-1.48,2.78-1.69,4.89-1.56-.3-3.27-.46-5.15-.46-5.18,0-9.21,1.18-12.06,3.53-2.86,2.35-4.28,5.71-4.28,10.08,0,2.98.61,5.41,1.84,7.31,1.22,1.9,3.06,3.18,5.51,3.85v2.16c-2.3,0-4.06.46-5.26,1.37-1.2.91-1.8,2.23-1.8,3.96s.66,3.1,1.98,3.96c1.32.86,3.32,1.3,6.01,1.3h14.18c.86,0,1.48.14,1.84.43s.54.77.54,1.44c0,.62-.18,1.09-.54,1.4-.36.31-.97.47-1.84.47h-22.03v7.42h22.18c3.98,0,7.03-.85,9.14-2.56,2.11-1.7,3.17-4.19,3.17-7.45,0-2.98-.9-5.24-2.7-6.8ZM383.74,63.52c0-1.78.53-3.06,1.58-3.85s2.66-1.19,4.82-1.19,3.71.4,4.79,1.19,1.62,2.08,1.62,3.85v2.02c0,1.73-.54,3-1.62,3.82s-2.68,1.22-4.79,1.22-3.77-.41-4.82-1.22-1.58-2.09-1.58-3.82v-2.02Z"/>
    <path class="cls-1" d="M438.56,53.22c-2.78-1.54-6.12-2.3-10.01-2.3s-7.3.77-10.08,2.3c-2.78,1.54-4.91,3.79-6.37,6.77-1.46,2.98-2.2,6.6-2.2,10.87s.73,7.9,2.2,10.87c1.46,2.98,3.59,5.23,6.37,6.77,2.78,1.54,6.14,2.3,10.08,2.3s7.22-.77,10.01-2.3c2.78-1.54,4.91-3.79,6.37-6.77,1.46-2.98,2.2-6.6,2.2-10.87s-.73-7.9-2.2-10.87c-1.46-2.98-3.59-5.23-6.37-6.77ZM436.19,73.67c0,3.17-.61,5.48-1.84,6.95-1.22,1.46-3.16,2.2-5.8,2.2s-4.64-.73-5.87-2.2c-1.22-1.46-1.84-3.78-1.84-6.95v-5.62c0-3.17.61-5.48,1.84-6.95,1.22-1.46,3.18-2.2,5.87-2.2s4.57.73,5.8,2.2c1.22,1.46,1.84,3.78,1.84,6.95v5.62Z"/>
    <path class="cls-1" d="M478.63,53.22c-2.79-1.54-6.12-2.3-10.01-2.3s-7.3.77-10.08,2.3c-2.78,1.54-4.91,3.79-6.37,6.77-1.46,2.98-2.2,6.6-2.2,10.87s.73,7.9,2.2,10.87c1.46,2.98,3.59,5.23,6.37,6.77,2.78,1.54,6.14,2.3,10.08,2.3s7.22-.77,10.01-2.3c2.78-1.54,4.91-3.79,6.37-6.77,1.46-2.98,2.2-6.6,2.2-10.87s-.73-7.9-2.2-10.87c-1.46-2.98-3.59-5.23-6.37-6.77ZM476.25,73.67c0,3.17-.61,5.48-1.84,6.95-1.22,1.46-3.16,2.2-5.8,2.2s-4.64-.73-5.87-2.2c-1.22-1.46-1.84-3.78-1.84-6.95v-5.62c0-3.17.61-5.48,1.84-6.95,1.22-1.46,3.18-2.2,5.87-2.2s4.57.73,5.8,2.2c1.22,1.46,1.84,3.78,1.84,6.95v5.62Z"/>
    <path class="cls-1" d="M526.32,40.41h-14.4v7.42h4.1v1.87c0,1.73.24,4.75.72,9.07h-2.3c-.67-2.59-1.83-4.55-3.46-5.87-1.63-1.32-3.77-1.98-6.41-1.98-2.88,0-5.4.79-7.56,2.38-2.16,1.58-3.83,3.88-5,6.88-1.18,3-1.76,6.56-1.76,10.69s.59,7.63,1.76,10.66c1.18,3.02,2.86,5.33,5.04,6.91,2.18,1.58,4.69,2.38,7.52,2.38s4.99-.72,6.77-2.16c1.78-1.44,3.02-3.55,3.74-6.34h2.3v1.37c0,2.11.55,3.71,1.66,4.79,1.1,1.08,2.66,1.62,4.68,1.62h6.55v-7.42h-3.96v-42.26ZM516.02,73.74c0,3.07-.6,5.35-1.8,6.84-1.2,1.49-3.07,2.23-5.62,2.23s-4.49-.74-5.69-2.23c-1.2-1.49-1.8-3.77-1.8-6.84v-5.76c0-3.07.6-5.35,1.8-6.84,1.2-1.49,3.1-2.23,5.69-2.23s4.42.75,5.62,2.23c1.2,1.49,1.8,3.77,1.8,6.84v5.76Z"/>
    <path class="cls-1" d="M571.46,68.7l-7.92-1.73c-2.11-.48-3.62-1.1-4.54-1.87-.91-.77-1.37-1.8-1.37-3.1,0-1.73.73-3.05,2.2-3.96,1.46-.91,3.49-1.37,6.08-1.37,2.16,0,3.89.3,5.18.9,1.3.6,2.22,1.39,2.77,2.38.55.98.83,2.1.83,3.35v.29h7.34c-.72-4.42-2.38-7.63-4.97-9.65-2.59-2.02-6.31-3.02-11.16-3.02s-8.77,1.01-11.48,3.02c-2.71,2.02-4.07,4.92-4.07,8.71,0,2.78.83,5,2.48,6.66s4.31,2.89,7.96,3.71l7.92,1.73c2.21.48,3.77,1.09,4.68,1.84.91.75,1.37,1.79,1.37,3.13,0,1.73-.76,3.05-2.27,3.96-1.51.91-3.61,1.37-6.3,1.37-2.16,0-3.9-.3-5.22-.9-1.32-.6-2.26-1.39-2.81-2.38-.55-.98-.83-2.1-.83-3.35v-.29h-7.42c.72,4.37,2.39,7.57,5,9.61,2.62,2.04,6.37,3.06,11.27,3.06,5.14,0,9.07-1.02,11.81-3.06,2.74-2.04,4.1-4.96,4.1-8.75,0-2.78-.85-4.99-2.56-6.62-1.71-1.63-4.4-2.86-8.1-3.67Z"/>
    <path class="cls-1" d="M613.67,53.22c-2.64-1.54-5.83-2.3-9.58-2.3s-7.01.77-9.65,2.3-4.67,3.79-6.08,6.77c-1.42,2.98-2.12,6.6-2.12,10.87s.71,7.9,2.12,10.87c1.42,2.98,3.44,5.23,6.08,6.77,2.64,1.54,5.86,2.3,9.65,2.3s6.94-.77,9.58-2.3c2.64-1.54,4.67-3.79,6.08-6.77,1.42-2.98,2.12-6.6,2.12-10.87s-.71-7.9-2.12-10.87c-1.42-2.98-3.45-5.23-6.08-6.77ZM614.1,73.02c0,4.08-.82,7.08-2.45,9s-4.15,2.88-7.56,2.88-6-.96-7.63-2.88c-1.63-1.92-2.45-4.92-2.45-9v-4.32c0-4.08.82-7.08,2.45-9,1.63-1.92,4.18-2.88,7.63-2.88s5.93.96,7.56,2.88c1.63,1.92,2.45,4.92,2.45,9v4.32Z"/>
    <path class="cls-1" d="M659.54,65.03c0-4.61-1.02-8.11-3.06-10.51s-5.03-3.6-8.96-3.6c-2.78,0-5.04.61-6.77,1.84-1.73,1.22-3.05,3.11-3.96,5.65h-2.02v-6.77h-11.02v5.47h4.9v32.98h7.2v-23.62c0-3.31.66-5.75,1.98-7.31,1.32-1.56,3.42-2.34,6.3-2.34s4.9.78,6.19,2.34c1.3,1.56,1.94,4,1.94,7.31v23.62h12.17v-5.47h-4.9v-19.58Z"/>
    <path class="cls-1" d="M698.85,84.4c-1.66-1.44-4.09-2.16-7.31-2.16h-13.39c-1.2,0-2.05-.18-2.56-.54s-.76-.92-.76-1.69c0-.82.25-1.4.76-1.76s1.36-.54,2.56-.54h5.54c4.9,0,8.69-1.14,11.38-3.42,2.69-2.28,4.03-5.53,4.03-9.76s-1.37-7.73-4.1-10.08c-.99-.85-2.12-1.54-3.39-2.08.45-.48,1.13-.73,2.02-.73h7.49v-5.47h-5.33c-2.16,0-3.76.59-4.79,1.76-.77.88-1.25,2.12-1.45,3.74-1.8-.49-3.82-.75-6.08-.75-4.94,0-8.8,1.18-11.56,3.53-2.76,2.35-4.14,5.71-4.14,10.08,0,2.74.55,5.05,1.66,6.95s2.74,3.28,4.9,4.14v1.73c-2.02.14-3.56.67-4.64,1.58-1.08.91-1.62,2.16-1.62,3.74,0,1.83.67,3.19,2.02,4.1,1.34.91,3.31,1.37,5.9,1.37h14.11c1.44,0,2.46.23,3.06.68.6.46.9,1.21.9,2.27s-.3,1.82-.9,2.3c-.6.48-1.62.72-3.06.72h-21.96v5.47h22.25c3.6,0,6.32-.77,8.17-2.3,1.85-1.54,2.77-3.74,2.77-6.62s-.83-4.82-2.48-6.26ZM675.05,63.81c0-2.45.68-4.26,2.05-5.44,1.37-1.18,3.49-1.76,6.37-1.76s4.94.59,6.34,1.76c1.39,1.18,2.09,2.99,2.09,5.44v1.37c0,2.4-.7,4.2-2.09,5.4-1.39,1.2-3.5,1.8-6.34,1.8s-5-.6-6.37-1.8c-1.37-1.2-2.05-3-2.05-5.4v-1.37Z"/>
    <path class="cls-1" d="M733.4,72.38c-1.71-1.63-4.4-2.86-8.1-3.67l-7.92-1.73c-2.11-.48-3.62-1.1-4.54-1.87-.91-.77-1.37-1.8-1.37-3.1,0-1.73.73-3.05,2.2-3.96,1.46-.91,3.49-1.37,6.08-1.37,2.16,0,3.89.3,5.18.9,1.3.6,2.22,1.39,2.77,2.38.55.98.83,2.1.83,3.35v.29h7.34c-.72-4.42-2.38-7.63-4.97-9.65-2.59-2.02-6.31-3.02-11.16-3.02s-8.77,1.01-11.48,3.02c-2.71,2.02-4.07,4.92-4.07,8.71,0,2.78.83,5,2.48,6.66s4.31,2.89,7.96,3.71l7.92,1.73c2.21.48,3.77,1.09,4.68,1.84.91.75,1.37,1.79,1.37,3.13,0,1.73-.76,3.05-2.27,3.96-1.51.91-3.61,1.37-6.3,1.37-2.16,0-3.9-.3-5.22-.9-1.32-.6-2.26-1.39-2.81-2.38-.55-.98-.83-2.1-.83-3.35v-.29h-7.42c.72,4.37,2.39,7.57,5,9.61,2.62,2.04,6.37,3.06,11.27,3.06,5.14,0,9.07-1.02,11.81-3.06,2.74-2.04,4.1-4.96,4.1-8.75,0-2.78-.85-4.99-2.56-6.62Z"/>
  </g>
</svg>